<svg xmlns="http://www.w3.org/2000/svg" viewBox="0 0 48 48" fill="none">
  <defs>
    <linearGradient id="wb" x1="0" y1="0" x2="1" y2="1">
      <stop offset="0%" stop-color="#9A6234"/>
      <stop offset="100%" stop-color="#5C3818"/>
    </linearGradient>
    <linearGradient id="we" x1="0" y1="0" x2="0" y2="1">
      <stop offset="0%" stop-color="#E0C490"/>
      <stop offset="100%" stop-color="#B89058"/>
    </linearGradient>
  </defs>
  <ellipse cx="24" cy="42.5" rx="14" ry="2.2" fill="#000" opacity="0.1"/>
  <path d="M7 30v6.5c0 1.2 1 2.2 2.2 2.2h8.6c1.2 0 2.2-1 2.2-2.2V30" fill="url(#wb)" stroke="#1E1E22" stroke-width="1.5" stroke-linejoin="round"/>
  <ellipse cx="13.5" cy="30" rx="6.5" ry="3.8" fill="url(#we)" stroke="#1E1E22" stroke-width="1.5"/>
  <circle cx="13.5" cy="30" r="2.2" fill="none" stroke="#8B6840" stroke-width="0.8"/>
  <circle cx="13.5" cy="30" r="4.2" fill="none" stroke="#8B6840" stroke-width="0.6"/>
  <path d="M22 31v6.5c0 1.2 1 2.2 2.2 2.2h8.6c1.2 0 2.2-1 2.2-2.2V31" fill="url(#wb)" stroke="#1E1E22" stroke-width="1.5" stroke-linejoin="round"/>
  <ellipse cx="28.5" cy="31" rx="6.5" ry="3.8" fill="url(#we)" stroke="#1E1E22" stroke-width="1.5"/>
  <circle cx="28.5" cy="31" r="2.2" fill="none" stroke="#8B6840" stroke-width="0.8"/>
  <circle cx="28.5" cy="31" r="4.2" fill="none" stroke="#8B6840" stroke-width="0.6"/>
  <path d="M14 20v6.5c0 1.2 1 2.2 2.2 2.2h15.6c1.2 0 2.2-1 2.2-2.2V20" fill="url(#wb)" stroke="#1E1E22" stroke-width="1.5" stroke-linejoin="round"/>
  <ellipse cx="24" cy="20" rx="9" ry="4.5" fill="url(#we)" stroke="#1E1E22" stroke-width="1.5"/>
  <circle cx="24" cy="20" r="2.8" fill="none" stroke="#8B6840" stroke-width="0.9"/>
  <circle cx="24" cy="20" r="5.5" fill="none" stroke="#8B6840" stroke-width="0.7"/>
  <path d="M14 24h20" stroke="#6B4428" stroke-width="0.7" opacity="0.55"/>
  <path d="M7 33h13M22 34h13M14 23h20" stroke="#6B4428" stroke-width="0.6" opacity="0.4"/>
</svg>
