<svg xmlns="http://www.w3.org/2000/svg" viewBox="0 0 48 48" aria-hidden="true">
  <ellipse cx="24" cy="42" rx="18" ry="4" fill="#0a0e14" opacity="0.45"/>
  <path d="M8 34 L24 26 L40 34 L40 38 L8 38 Z" fill="#3a4554"/>
  <path d="M10 28 L22 22 L34 28 L34 36 L10 36 Z" fill="#4a5a72" stroke="#8eb4e8" stroke-width="0.8"/>
  <path d="M10 28 L22 22 L34 28 L22 32 Z" fill="#6a8ab8" opacity="0.85"/>
  <path d="M26 20 L34 16 L34 28 L26 32 Z" fill="#5a7090" stroke="#a8c8f0" stroke-width="0.6"/>
  <path d="M28 12 A6 6 0 0 1 34 18 L28 18 Z" fill="#7a9ac0"/>
  <path d="M36 14 L38 14 L37 22 L35 22 Z" fill="#9aa8bc"/>
  <circle cx="37" cy="12" r="1.2" fill="#b8d4f8"/>
</svg>
